<svg class="img-fluid" id="outputsvg" xmlns="http://www.w3.org/2000/svg" width="512" height="512" viewBox="0 0 5120 5120"><g id="l7KRDUjARRwm9D9SPctEFBo" fill="black"><g><path id="ppauRJwXB" d="M3075 4966 c-39 -17 -70 -52 -90 -98 -22 -55 -22 -581 0 -635 20 -48 41 -71 87 -94 33 -17 61 -19 246 -19 196 0 210 1 230 20 18 17 22 32 22 85 0 98 -3 99 -213 105 l-172 5 0 215 0 215 875 0 875 0 0 -215 0 -215 -587 -5 c-681 -6 -628 3 -628 -105 0 -115 -61 -105 664 -105 417 0 634 4 653 11 15 5 40 22 56 37 l27 26 0 356 0 356 -27 26 c-16 15 -41 32 -56 37 -46 18 -1923 14 -1962 -3z"></path><path id="pzerEe23y" d="M2307 4856 c-88 -32 -153 -95 -182 -175 -18 -52 -20 -197 -4 -251 19 -63 78 -131 142 -164 l57 -29 0 -353 0 -352 -34 -12 c-50 -16 -121 -83 -150 -142 -23 -46 -26 -64 -26 -152 0 -85 4 -109 24 -152 29 -63 84 -117 142 -141 l44 -18 0 -355 0 -356 -37 -13 c-52 -19 -122 -88 -149 -146 -20 -42 -24 -66 -24 -150 0 -84 4 -108 24 -150 26 -58 101 -128 152 -145 l34 -12 0 -352 0 -353 -57 -29 c-64 -33 -123 -101 -142 -164 -16 -55 -14 -198 5 -252 20 -61 70 -117 135 -153 43 -23 69 -30 135 -33 152 -8 252 42 311 157 31 58 33 70 33 159 0 81 -4 105 -24 148 -29 63 -85 120 -143 146 l-43 19 0 354 0 353 37 13 c56 18 136 104 158 168 24 74 18 229 -12 286 -27 52 -99 119 -146 136 l-37 13 0 356 0 356 37 13 c47 17 119 84 146 136 30 57 36 212 12 286 -22 64 -102 150 -158 168 l-37 13 0 353 0 354 43 19 c58 26 114 83 143 146 20 43 24 67 24 148 0 89 -2 101 -33 159 -56 109 -149 159 -291 159 -39 -1 -88 -7 -109 -14z m207 -270 c12 -25 14 -41 7 -59 -12 -31 -67 -77 -93 -77 -32 0 -75 31 -95 67 -17 33 -17 35 2 70 11 20 35 44 54 54 33 17 35 17 71 -1 22 -11 44 -33 54 -54z m-47 -1276 c47 -28 68 -74 52 -112 -14 -35 -68 -78 -97 -78 -27 0 -90 55 -98 85 -8 31 20 82 59 105 40 25 44 25 84 0z m1 -1330 c18 -11 40 -35 49 -54 15 -32 15 -36 -3 -67 -11 -18 -35 -42 -53 -53 -31 -18 -35 -18 -67 -3 -36 18 -74 69 -74 101 0 10 17 36 39 57 44 44 62 47 109 19z m12 -1337 c17 -14 36 -37 41 -50 14 -36 -15 -90 -61 -113 -36 -18 -38 -18 -71 -1 -19 10 -43 34 -54 54 -19 35 -19 37 -2 70 20 37 61 66 94 67 12 0 36 -12 53 -27z"></path><path id="pGrbkZX19" d="M3443 4650 c-12 -5 -29 -20 -39 -35 -21 -32 -15 -116 11 -145 18 -20 32 -20 646 -20 l628 0 20 26 c31 39 29 114 -3 151 l-24 28 -609 2 c-340 1 -618 -2 -630 -7z"></path><path id="pFgbmWHHp" d="M396 4094 c-146 -35 -289 -147 -359 -280 l-37 -72 0 -219 0 -220 32 -64 c21 -43 57 -89 109 -141 l77 -77 4 -139 c4 -175 8 -182 108 -182 94 0 103 12 108 141 l4 99 117 0 c133 0 195 14 296 65 81 40 107 43 136 14 l21 -21 -23 -24 c-20 -22 -31 -24 -106 -24 -76 0 -86 -2 -108 -25 -21 -20 -25 -34 -25 -81 0 -52 3 -60 50 -119 l50 -63 -66 -4 c-58 -4 -70 -8 -90 -32 -32 -36 -33 -111 -3 -150 l20 -26 223 0 c220 0 223 0 244 23 17 18 22 36 22 79 0 53 -3 59 -59 128 l-60 73 42 27 c26 17 52 45 70 77 24 44 27 62 27 139 0 119 -34 186 -117 232 -14 8 -13 15 6 68 13 32 28 107 34 166 l11 108 298 0 c168 0 308 -4 322 -10 l26 -10 0 -665 0 -665 -679 0 -679 0 -4 144 c-4 179 -8 186 -108 186 -111 0 -104 27 -108 -436 -3 -428 2 -486 44 -542 42 -54 92 -72 212 -72 l102 0 0 -58 c0 -79 15 -92 102 -92 80 0 97 15 105 94 l6 56 328 0 329 0 0 -49 c0 -34 6 -56 21 -75 18 -23 27 -26 85 -26 85 0 104 18 104 95 l0 55 98 1 c110 1 149 11 193 54 62 58 59 4 59 1082 0 937 -1 990 -19 1028 -25 55 -70 91 -131 104 -31 7 -189 11 -408 11 l-357 0 -20 43 c-11 23 -53 76 -95 118 -81 82 -158 127 -265 154 -74 19 -239 18 -319 -1z m301 -234 c85 -39 156 -108 196 -189 28 -57 32 -76 32 -146 0 -69 -4 -89 -31 -145 -47 -100 -142 -184 -244 -215 -24 -7 -24 -7 -7 12 14 16 17 39 17 131 l0 112 75 0 c100 0 115 14 115 104 0 58 -3 67 -26 85 -24 19 -40 21 -165 21 -148 0 -180 -8 -198 -47 -18 -38 -15 -361 4 -396 14 -27 14 -28 -8 -22 -89 27 -186 115 -234 213 -32 64 -37 83 -36 141 1 159 110 302 272 359 83 28 150 24 238 -18z m1103 -1988 c0 -94 -4 -142 -12 -150 -7 -7 -38 -12 -70 -12 l-58 0 0 54 c0 82 -20 101 -105 101 -85 0 -105 -19 -105 -101 l0 -54 -329 0 -328 0 -6 58 c-8 75 -36 102 -106 102 -73 0 -99 -25 -103 -98 l-3 -57 -44 -3 c-94 -7 -91 -11 -91 153 l0 145 680 0 680 0 0 -138z"></path><path id="pQcPhcmwi" d="M3060 3629 c-20 -11 -47 -37 -60 -56 l-25 -36 -3 -299 c-3 -278 -2 -301 17 -342 13 -30 34 -54 62 -73 l43 -28 943 -3 c634 -2 957 1 983 8 22 6 53 22 70 36 l30 26 0 357 c0 393 1 384 -64 415 -31 14 -127 16 -998 16 -952 0 -963 -1 -998 -21z m1878 -403 c2 -161 -1 -211 -10 -218 -7 -4 -398 -8 -868 -8 -653 0 -859 3 -868 12 -13 13 -18 409 -5 421 3 4 398 6 877 5 l871 -3 3 -209z"></path><path id="pqDBicCfX" d="M3433 3318 c-31 -15 -46 -60 -40 -115 10 -89 -36 -83 669 -83 l619 0 26 26 c23 23 25 31 21 86 -8 106 46 98 -662 97 -406 0 -618 -4 -633 -11z"></path><path id="pXgixdXqU" d="M1371 3224 c-20 -26 -21 -39 -21 -294 l0 -268 -36 -6 c-56 -11 -74 -36 -74 -104 0 -45 5 -63 20 -80 19 -20 30 -22 140 -22 175 0 160 -38 160 400 0 423 6 400 -104 400 -58 0 -67 -3 -85 -26z"></path><path id="pa691zXp4" d="M3097 2320 c-48 -14 -94 -57 -112 -103 -14 -37 -16 -83 -13 -338 l3 -296 25 -36 c13 -20 41 -45 61 -56 36 -20 50 -21 591 -21 641 0 588 -9 588 102 0 110 42 102 -549 108 l-506 5 -3 204 c-2 142 1 208 9 217 10 12 152 14 868 14 471 0 862 -4 869 -8 9 -7 12 -57 10 -218 l-3 -209 -251 -5 c-301 -6 -294 -3 -294 -110 0 -105 -17 -100 334 -100 255 0 303 2 332 16 65 31 64 22 64 415 l0 357 -30 26 c-17 14 -47 30 -68 36 -45 12 -1883 12 -1925 0z"></path><path id="pQ1d7uIia" d="M3420 1982 c-15 -12 -24 -33 -27 -65 -7 -57 10 -100 43 -116 18 -8 202 -11 633 -11 705 0 651 -8 659 98 4 55 2 63 -21 86 l-26 26 -619 0 c-581 0 -621 -1 -642 -18z"></path><path id="p16WB3tAPV" d="M3075 983 c-46 -24 -66 -45 -86 -88 -17 -36 -19 -70 -19 -325 0 -256 2 -289 19 -325 21 -46 54 -79 94 -94 19 -8 330 -11 978 -11 1023 0 987 -2 1037 52 l22 25 -2 358 -3 358 -38 31 -39 31 -966 2 c-868 2 -970 1 -997 -14z m1860 -413 l0 -215 -875 0 -875 0 -3 205 c-1 112 0 210 2 217 4 11 176 13 878 11 l873 -3 0 -215z"></path><path id="p1eHE2S48" d="M3415 650 c-11 -12 -20 -41 -23 -73 -4 -46 -1 -57 21 -83 l25 -29 622 0 622 0 24 28 c32 37 34 112 3 151 l-20 26 -628 0 c-617 0 -628 0 -646 -20z"></path></g></g><g id="l1XI5PcW1NYRLWrB9DA57VI" fill="none"><g><path id="pUseCZK1s" d="M1 4353 c0 -671 2 -760 14 -706 32 147 145 294 281 365 168 88 340 90 514 6 77 -37 205 -160 235 -225 l20 -43 357 0 c219 0 377 -4 408 -11 61 -13 106 -49 131 -104 18 -38 19 -90 19 -998 0 -1046 3 -994 -59 -1052 -44 -43 -83 -53 -193 -54 l-98 -1 0 -55 c0 -67 -22 -95 -74 -95 -48 0 -76 37 -76 101 l0 49 -359 0 -358 0 -6 -56 c-7 -69 -27 -94 -77 -94 -52 0 -70 23 -70 93 l0 57 -102 0 c-120 0 -170 18 -212 72 -42 56 -47 116 -44 512 3 342 4 365 22 385 26 29 86 29 112 0 16 -18 19 -40 22 -165 l4 -144 709 0 709 0 0 695 0 695 -26 10 c-16 6 -156 9 -358 8 l-331 -3 -2 -76 c-2 -90 -22 -179 -58 -249 -14 -27 -25 -51 -25 -54 0 -2 10 -6 23 -10 12 -3 38 -19 59 -36 120 -100 99 -302 -39 -370 -28 -14 -52 -29 -52 -33 -1 -4 33 -48 74 -98 83 -100 92 -130 52 -167 -22 -21 -32 -22 -214 -22 l-192 0 -20 26 c-27 35 -26 57 3 91 22 25 31 28 114 33 l90 5 -74 90 c-82 100 -91 129 -49 170 22 23 32 25 108 25 74 0 86 3 105 23 13 14 22 36 22 55 0 83 -95 97 -222 34 -102 -52 -173 -66 -302 -60 l-104 5 -4 -103 c-4 -120 -17 -144 -78 -144 -66 0 -74 20 -79 183 l-3 142 -61 55 c-93 84 -161 205 -180 320 -2 14 -5 -752 -6 -1702 l-1 -1728 2560 0 2560 0 0 153 c-1 135 -2 149 -14 122 -17 -37 -62 -80 -99 -94 -40 -15 -1855 -15 -1894 0 -40 15 -73 48 -94 94 -16 36 -19 68 -19 293 0 307 7 335 102 383 37 19 70 19 972 17 l934 -3 38 -30 c20 -17 45 -46 55 -65 19 -34 19 -30 19 365 l0 400 -21 -43 c-12 -23 -35 -52 -53 -65 -30 -21 -39 -22 -310 -25 -251 -3 -280 -1 -297 14 -27 24 -25 85 2 110 19 17 43 19 273 24 l251 5 3 239 c2 185 -1 241 -10 248 -7 4 -412 8 -899 8 -740 0 -888 -2 -898 -14 -8 -9 -11 -83 -9 -247 l3 -234 506 -5 c481 -5 508 -6 528 -24 27 -25 29 -86 3 -109 -17 -15 -69 -17 -541 -17 -509 0 -524 1 -560 21 -20 11 -48 36 -61 56 -25 36 -25 38 -28 304 -3 249 -2 272 17 313 13 30 34 54 62 73 l43 28 913 3 c601 1 927 -1 952 -8 52 -14 90 -46 112 -94 18 -41 19 -38 19 364 0 402 -1 405 -19 364 -22 -48 -60 -80 -112 -94 -25 -7 -351 -9 -952 -8 l-913 3 -43 28 c-28 19 -49 43 -62 73 -19 41 -20 64 -17 313 3 266 3 268 28 304 13 20 41 45 61 57 37 20 43 20 981 18 l943 -3 31 -22 c18 -13 41 -42 53 -65 l21 -43 0 400 c0 369 -1 398 -16 370 -8 -16 -25 -41 -37 -54 -48 -51 -43 -51 -682 -51 -582 0 -595 0 -615 20 -27 27 -27 84 0 108 19 16 69 17 608 22 l587 5 0 245 0 245 -905 0 -905 0 0 -245 0 -245 172 -5 c145 -4 176 -8 193 -22 28 -24 27 -81 -2 -108 -20 -19 -34 -20 -200 -20 -156 0 -184 2 -216 19 -95 48 -102 76 -102 383 0 225 3 257 19 293 21 46 54 79 94 94 39 15 1854 15 1894 0 37 -14 82 -57 99 -94 12 -27 13 -13 14 123 l0 152 -2560 0 -2560 0 1 -767z m2507 472 c75 -23 131 -70 169 -144 28 -52 33 -74 33 -129 0 -114 -67 -220 -167 -264 l-43 -19 0 -384 0 -383 37 -13 c56 -18 136 -104 158 -168 22 -68 17 -169 -13 -226 -26 -52 -98 -119 -145 -136 l-37 -13 0 -386 0 -386 37 -13 c47 -17 119 -84 145 -136 30 -57 35 -158 13 -226 -22 -64 -102 -150 -158 -168 l-37 -13 0 -383 0 -384 43 -19 c100 -44 167 -150 167 -264 0 -55 -5 -77 -33 -129 -138 -267 -537 -171 -537 129 0 114 55 206 153 256 l57 29 0 383 0 382 -34 12 c-51 17 -126 87 -152 145 -33 70 -33 170 0 240 27 58 97 127 149 146 l37 13 0 386 0 385 -44 18 c-142 58 -210 245 -140 385 29 59 100 126 150 142 l34 12 0 382 0 383 -57 29 c-64 33 -123 101 -142 164 -37 123 9 260 109 326 82 54 156 66 248 39z m2168 -228 c29 -34 30 -56 3 -91 l-20 -26 -598 0 c-557 0 -599 1 -613 18 -38 43 -26 101 25 122 12 5 278 8 600 7 l579 -2 24 -28z m-3166 -1397 c19 -19 20 -33 20 -350 0 -397 9 -370 -130 -370 -79 0 -92 3 -110 22 -43 46 -15 111 54 124 l36 6 0 268 c0 255 1 268 21 294 26 33 79 36 109 6z m3167 -1256 c20 -20 24 -31 19 -57 -13 -70 17 -67 -627 -67 -408 0 -585 3 -603 11 -50 23 -55 101 -9 128 12 7 214 10 606 11 l588 0 26 -26z"></path><path id="pwgGsT6fr" d="M2361 4673 c-44 -22 -71 -67 -71 -121 0 -58 25 -98 78 -123 55 -27 101 -19 149 24 67 62 53 176 -28 217 -46 24 -83 25 -128 3z"></path><path id="pQKzntgSM" d="M2353 3340 c-42 -25 -63 -68 -63 -126 0 -41 5 -51 39 -85 35 -35 44 -39 91 -39 84 0 140 54 140 137 0 104 -117 168 -207 113z"></path><path id="p64vuvDYQ" d="M2329 1991 c-35 -34 -39 -44 -39 -87 0 -86 55 -144 135 -144 75 0 135 59 135 133 0 82 -58 137 -144 137 -43 0 -53 -4 -87 -39z"></path><path id="p19XpudNnd" d="M2365 690 c-50 -25 -75 -65 -75 -122 0 -54 27 -100 73 -121 46 -22 79 -21 126 3 101 51 91 201 -16 246 -43 19 -61 18 -108 -6z"></path><path id="pshJx8rrr" d="M429 3908 c-81 -29 -159 -87 -204 -153 -54 -78 -68 -128 -69 -236 -1 -91 1 -99 37 -171 43 -88 107 -152 195 -195 52 -26 67 -28 167 -28 102 0 115 2 175 31 206 97 291 343 190 550 -85 175 -307 266 -491 202z m365 -329 c33 -26 36 -79 6 -109 -16 -16 -33 -20 -95 -20 l-75 0 0 -112 c0 -101 -2 -114 -22 -135 -26 -28 -67 -30 -99 -4 -23 18 -24 25 -27 171 -4 163 3 200 41 218 12 6 72 11 133 11 98 1 114 -1 138 -20z"></path><path id="pSmJubjUz" d="M3157 3463 c-13 -12 -8 -468 5 -481 9 -9 222 -12 898 -12 487 0 891 4 898 8 9 7 12 63 10 248 l-3 239 -901 3 c-495 1 -904 -1 -907 -5z m1512 -180 c11 -10 24 -32 27 -50 5 -26 1 -37 -19 -57 l-26 -26 -586 0 c-394 0 -593 3 -606 11 -47 24 -44 104 4 127 15 7 218 11 603 11 540 1 583 0 603 -16z"></path><path id="pzcVRrtKw" d="M410 1865 c0 -203 -10 -188 120 -183 l75 3 3 57 c2 48 7 61 29 78 33 26 56 25 88 -2 20 -18 27 -35 32 -80 l6 -58 358 0 359 0 0 54 c0 70 22 100 75 100 53 0 75 -30 75 -100 l0 -54 88 0 c55 0 92 4 100 12 8 8 12 63 12 180 l0 168 -710 0 -710 0 0 -175z"></path><path id="pMjxREyK8" d="M3155 807 c-3 -7 -4 -118 -3 -247 l3 -235 905 0 905 0 0 245 0 245 -903 3 c-724 2 -904 0 -907 -11z m1524 -193 c27 -35 26 -57 -3 -91 l-24 -28 -592 0 -592 0 -25 29 c-27 31 -25 66 4 99 15 16 57 17 614 17 l598 0 20 -26z"></path></g></g></svg>