<svg width="636" height="95" viewBox="0 0 636 95" fill="none" xmlns="http://www.w3.org/2000/svg">
<path d="M52.16 3.39999H69.824V93H56.384L17.984 38.216V93H0.320001V3.39999H13.76L52.16 58.056V3.39999ZM127.917 29H144.429V93H127.917V85.832C123.906 91.8053 117.549 94.792 108.845 94.792C101.848 94.792 96.045 92.4453 91.437 87.752C86.9143 83.0587 84.653 76.5733 84.653 68.296V29H101.165V66.248C101.165 70.5147 102.317 73.8 104.621 76.104C106.925 78.3227 109.997 79.432 113.837 79.432C118.104 79.432 121.517 78.1093 124.077 75.464C126.637 72.8187 127.917 68.8507 127.917 63.56V29ZM196.16 44.872H181.696V71.496C181.696 73.7147 182.251 75.336 183.36 76.36C184.469 77.384 186.091 77.9813 188.224 78.152C190.357 78.2373 193.003 78.1947 196.16 78.024V93C184.811 94.28 176.789 93.2133 172.096 89.8C167.488 86.3867 165.184 80.2853 165.184 71.496V44.872H154.048V29H165.184V16.072L181.696 11.08V29H196.16V44.872ZM225.314 40.008C226.85 35.912 229.367 32.84 232.866 30.792C236.45 28.744 240.418 27.72 244.77 27.72V46.152C239.735 45.5547 235.213 46.5787 231.202 49.224C227.277 51.8693 225.314 56.264 225.314 62.408V93H208.802V29H225.314V40.008ZM262.619 21.32C259.888 21.32 257.499 20.3387 255.451 18.376C253.488 16.328 252.507 13.9387 252.507 11.208C252.507 8.47733 253.488 6.088 255.451 4.03999C257.499 1.99199 259.888 0.967995 262.619 0.967995C265.435 0.967995 267.824 1.99199 269.787 4.03999C271.835 6.088 272.859 8.47733 272.859 11.208C272.859 13.9387 271.835 16.328 269.787 18.376C267.824 20.3387 265.435 21.32 262.619 21.32ZM254.427 93V29H270.939V93H254.427ZM340.324 20.296H304.484V41.544H339.3V58.44H304.484V93H286.82V3.39999H340.324V20.296ZM360.619 21.32C357.888 21.32 355.499 20.3387 353.451 18.376C351.488 16.328 350.507 13.9387 350.507 11.208C350.507 8.47733 351.488 6.088 353.451 4.03999C355.499 1.99199 357.888 0.967995 360.619 0.967995C363.435 0.967995 365.824 1.99199 367.787 4.03999C369.835 6.088 370.859 8.47733 370.859 11.208C370.859 13.9387 369.835 16.328 367.787 18.376C365.824 20.3387 363.435 21.32 360.619 21.32ZM352.427 93V29H368.939V93H352.427ZM420.66 44.872H406.196V71.496C406.196 73.7147 406.751 75.336 407.86 76.36C408.969 77.384 410.591 77.9813 412.724 78.152C414.857 78.2373 417.503 78.1947 420.66 78.024V93C409.311 94.28 401.289 93.2133 396.596 89.8C391.988 86.3867 389.684 80.2853 389.684 71.496V44.872H378.548V29H389.684V16.072L406.196 11.08V29H420.66V44.872Z" fill="black"/>
<path d="M463.766 40.648C470.934 41.5867 476.822 44.36 481.43 48.968C486.123 53.4907 488.47 59.5067 488.47 67.016C488.47 75.5493 485.526 82.2907 479.638 87.24C473.835 92.104 466.753 94.536 458.39 94.536C451.734 94.536 445.803 93 440.598 89.928C435.393 86.856 431.723 82.4613 429.59 76.744L437.014 72.392C438.465 76.8293 441.067 80.2 444.822 82.504C448.577 84.7227 453.099 85.832 458.39 85.832C464.534 85.832 469.569 84.2107 473.494 80.968C477.505 77.64 479.51 72.9893 479.51 67.016C479.51 61.0427 477.505 56.4347 473.494 53.192C469.569 49.864 464.534 48.2 458.39 48.2V48.072L458.262 48.2H455.83L451.99 42.312L474.262 11.848H432.15V3.39999H484.63V11.848L463.766 40.648ZM527.545 35.4C536.334 35.4 543.545 38.1733 549.177 43.72C554.809 49.1813 557.625 56.264 557.625 64.968C557.625 73.672 554.809 80.7973 549.177 86.344C543.545 91.8053 536.334 94.536 527.545 94.536C518.756 94.536 511.545 91.8053 505.913 86.344C500.281 80.7973 497.465 73.672 497.465 64.968C497.465 58.2267 499.3 52.2533 502.969 47.048L532.281 3.39999H542.393L520.377 36.168C522.681 35.656 525.07 35.4 527.545 35.4ZM512.185 80.072C516.11 83.912 521.23 85.832 527.545 85.832C533.86 85.832 538.937 83.912 542.777 80.072C546.702 76.232 548.665 71.1973 548.665 64.968C548.665 58.7387 546.702 53.704 542.777 49.864C538.937 46.024 533.86 44.104 527.545 44.104C521.23 44.104 516.11 46.024 512.185 49.864C508.345 53.704 506.425 58.7387 506.425 64.968C506.425 71.1973 508.345 76.232 512.185 80.072ZM626.78 81.992C620.892 90.3547 612.572 94.536 601.82 94.536C591.068 94.536 582.705 90.3547 576.732 81.992C570.844 73.544 567.9 62.28 567.9 48.2C567.9 34.12 570.844 22.8987 576.732 14.536C582.705 6.088 591.068 1.864 601.82 1.864C612.572 1.864 620.892 6.088 626.78 14.536C632.753 22.8987 635.74 34.12 635.74 48.2C635.74 62.28 632.753 73.544 626.78 81.992ZM583.388 75.976C587.825 82.5467 593.969 85.832 601.82 85.832C609.671 85.832 615.772 82.5467 620.124 75.976C624.561 69.4053 626.78 60.1467 626.78 48.2C626.78 36.2533 624.561 26.9947 620.124 20.424C615.772 13.8533 609.671 10.568 601.82 10.568C593.969 10.568 587.825 13.8533 583.388 20.424C579.036 26.9947 576.86 36.2533 576.86 48.2C576.86 60.1467 579.036 69.4053 583.388 75.976Z" fill="#F09E54"/>
</svg>
