<?xml version="1.0" encoding="utf-8"?>
<svg width="800px" height="800px" viewBox="0 0 24 24" fill="none" xmlns="http://www.w3.org/2000/svg">
  <path  d="M1 10.5C1 10.2239 1.22386 10 1.5 10C1.77614 10 2 10.2239 2 10.5V21.5C2 21.7761 1.77614 22 1.5 22C1.22386 22 1 21.7761 1 21.5V10.5Z"/>
  <path d="M3 8.5C3 8.22386 3.22386 8 3.5 8C3.77614 8 4 8.22386 4 8.5V21.5C4 21.7761 3.77614 22 3.5 22C3.22386 22 3 21.7761 3 21.5V8.5Z"/>
  <path d="M5 6.5C5 6.22386 5.22386 6 5.5 6C5.77614 6 6 6.22386 6 6.5V21.5C6 21.7761 5.77614 22 5.5 22C5.22386 22 5 21.7761 5 21.5V6.5Z"/>
  <path d="M7 9.5C7 9.22386 7.22386 9 7.5 9C7.77614 9 8 9.22386 8 9.5V21.5C8 21.7761 7.77614 22 7.5 22C7.22386 22 7 21.7761 7 21.5V9.5Z"/>
  <path d="M9 5.5C9 5.22386 9.22386 5 9.5 5C9.77614 5 10 5.22386 10 5.5V21.5C10 21.7761 9.77614 22 9.5 22C9.22386 22 9 21.7761 9 21.5V5.5Z"/>
  <path d="M11 7.5C11 7.22386 11.2239 7 11.5 7C11.7761 7 12 7.22386 12 7.5V21.5C12 21.7761 11.7761 22 11.5 22C11.2239 22 11 21.7761 11 21.5V7.5Z"/>
  <path d="M13 4.5C13 4.22386 13.2239 4 13.5 4C13.7761 4 14 4.22386 14 4.5V21.5C14 21.7761 13.7761 22 13.5 22C13.2239 22 13 21.7761 13 21.5V4.5Z"/>
  <path d="M15 6.5C15 6.22386 15.2239 6 15.5 6C15.7761 6 16 6.22386 16 6.5V21.5C16 21.7761 15.7761 22 15.5 22C15.2239 22 15 21.7761 15 21.5V6.5Z"/>
  <path d="M17 8.5C17 8.22386 17.2239 8 17.5 8C17.7761 8 18 8.22386 18 8.5V21.5C18 21.7761 17.7761 22 17.5 22C17.2239 22 17 21.7761 17 21.5V8.5Z"/>
  <path d="M19 10.5C19 10.2239 19.2239 10 19.5 10C19.7761 10 20 10.2239 20 10.5V21.5C20 21.7761 19.7761 22 19.5 22C19.2239 22 19 21.7761 19 21.5V10.5Z"/>
  <path d="M21 7.5C21 7.22386 21.2239 7 21.5 7C21.7761 7 22 7.22386 22 7.5V21.5C22 21.7761 21.7761 22 21.5 22C21.2239 22 21 21.7761 21 21.5V7.5Z"/>
  <path d="M23 5.5C23 5.22386 23.2239 5 23.5 5C23.7761 5 24 5.22386 24 5.5V21.5C24 21.7761 23.7761 22 23.5 22C23.2239 22 23 21.7761 23 21.5V5.5Z"/>
</svg>
