<svg width="1024" height="1074" viewBox="0 0 1024 1074" fill="none" xmlns="http://www.w3.org/2000/svg">
<rect y="25" width="1024" height="1024" fill="#F48A32"/>
<path d="M347.398 712V389.881H410.68L542.516 604.993V389.881H602.94V712H537.682L407.823 501.941V712H347.398Z" fill="white"/>
<path d="M535.179 712V389.881H756.004V444.373H600.218V520.618H734.69V575.11H600.218V712H535.179Z" fill="white"/>
<path d="M196.718 434.216C234.565 317.735 304.548 224.381 386.546 167.411C468.536 110.447 561.851 90.2111 647.568 118.062C733.285 145.914 796.885 217.135 829.733 311.411C862.585 405.698 864.329 522.358 826.482 638.838C788.635 755.319 718.654 848.673 636.655 905.643C554.666 962.607 461.35 982.843 375.633 954.992C289.916 927.141 226.317 855.92 193.469 761.643C160.616 667.356 158.872 550.696 196.718 434.216Z" stroke="white" stroke-width="25"/>
<circle cx="789" cy="223" r="50" fill="white"/>
</svg>
