<svg width="934" height="1074" viewBox="0 0 934 1074" fill="none" xmlns="http://www.w3.org/2000/svg">
<path d="M302.398 712V389.881H365.68L497.516 604.993V389.881H557.94V712H492.682L362.823 501.941V712H302.398Z" fill="#F48A32"/>
<path d="M490.179 712V389.881H711.004V444.373H555.218V520.618H689.69V575.11H555.218V712H490.179Z" fill="#F48A32" stroke-width="50"/>
<path d="M151.718 434.216C189.565 317.735 259.548 224.381 341.546 167.411C423.536 110.447 516.851 90.2111 602.568 118.062C688.285 145.914 751.885 217.135 784.733 311.411C817.585 405.698 819.329 522.358 781.482 638.838C743.635 755.319 673.654 848.673 591.655 905.643C509.666 962.607 416.35 982.843 330.633 954.992C244.916 927.141 181.317 855.92 148.469 761.643C115.616 667.356 113.872 550.696 151.718 434.216Z" stroke="#F48A32" stroke-width="50"/>
<circle cx="744" cy="223" r="100" fill="#F48A32" stroke-width="150"/>
</svg>
