<svg width="404" height="400" viewBox="0 0 404 400" fill="none" xmlns="http://www.w3.org/2000/svg">
<mask id="path-1-inside-1_314_376" fill="white">
<path d="M403.5 200C403.5 310.457 310.457 400 200 400C89.5431 400 0 310.457 0 200C0 89.5431 89.5431 0 200 0C310.457 0 403.5 89.5431 403.5 200Z"/>
</mask>
<path d="M436 200C414.333 200 392.667 200 371 200C371.005 217.574 368.155 235.004 362.56 251.608C351.542 284.523 329.548 313.913 301.09 334.509C271.869 355.798 236.027 367.583 200 367.5C110.814 369.711 30.2888 289.186 32.5 200C30.2888 110.814 110.814 30.2888 200 32.5C271.273 31.5532 340.625 80.9876 362.56 148.392C368.155 164.996 371.005 182.426 371 200C392.667 200 414.333 200 436 200C436.013 175.465 432.003 150.9 424.162 127.652C393.117 33.3472 298.743 -33.4492 200 -32.5C76.1218 -35.4695 -35.4695 76.1219 -32.5 200C-35.4695 323.878 76.1219 435.469 200 432.5C249.735 432.623 299.251 416.295 339.277 387.109C378.278 358.863 408.684 318.499 424.162 272.348C432.003 249.1 436.013 224.535 436 200ZM371 200H436H371Z" fill="#F48A32" mask="url(#path-1-inside-1_314_376)"/>
<path d="M404 98C404 125.614 381.614 148 354 148C326.386 148 304 125.614 304 98C304 70.3858 326.386 48 354 48C381.614 48 404 70.3858 404 98Z" fill="#F48A32"/>
<path d="M112.844 282V138.836H140.969L199.562 234.441V138.836H226.418V282H197.414L139.699 188.641V282H112.844Z" fill="#F48A32"/>
<path d="M200.746 282V138.836H298.891V163.055H229.652V196.941H289.418V221.16H229.652V282H200.746Z" fill="#F48A32"/>
</svg>
