<svg width="849" height="849" viewBox="0 0 849 849" fill="none" xmlns="http://www.w3.org/2000/svg">
<path d="M163.531 660V230.508H247.906L423.688 517.324V230.508H504.254V660H417.242L244.098 379.922V660H163.531Z" fill="white"/>
<path d="M424.238 660V230.508H718.672V303.164H510.957V404.824H690.254V477.48H510.957V660H424.238Z" fill="white"/>
<path d="M424.5 14C651.213 14 835 197.787 835 424.5C835 651.213 651.213 835 424.5 835C197.787 835 14 651.213 14 424.5C14 197.787 197.787 14 424.5 14Z" stroke="white" stroke-width="28"/>
<path d="M703 83C703 110.614 680.614 133 653 133C625.386 133 603 110.614 603 83C603 55.3858 625.386 33 653 33C680.614 33 703 55.3858 703 83Z" fill="white"/>
</svg>
