<svg width="404" height="400" viewBox="0 0 404 400" fill="none" xmlns="http://www.w3.org/2000/svg">
<mask id="path-1-inside-1_310_383" fill="white">
<path d="M403.5 200C403.5 310.457 310.457 400 200 400C89.5431 400 0 310.457 0 200C0 89.5431 89.5431 0 200 0C310.457 0 403.5 89.5431 403.5 200Z"/>
</mask>
<path d="M428.5 200C411.833 200 395.167 200 378.5 200C378.506 218.377 375.522 236.63 369.668 254.001C358.136 288.443 335.171 319.1 305.496 340.578C275.028 362.779 237.608 375.088 200 375C106.811 377.299 22.7013 293.189 25 200C22.7013 106.811 106.811 22.7013 200 25C274.443 24.0529 346.682 75.4907 369.668 145.999C375.522 163.37 378.506 181.623 378.5 200C395.167 200 411.833 200 428.5 200C428.512 176.268 424.636 152.526 417.054 130.045C387.061 38.8442 295.573 -25.9489 200 -25C80.1247 -27.882 -27.882 80.1248 -25 200C-27.882 319.875 80.1248 427.882 200 425C248.153 425.119 296.092 409.314 334.871 381.04C372.655 353.677 402.091 314.579 417.054 269.955C424.636 247.474 428.512 223.732 428.5 200ZM378.5 200H428.5H378.5Z" fill="#F48A32" mask="url(#path-1-inside-1_310_383)"/>
<path d="M384 72C384 94.0914 366.091 112 344 112C321.909 112 304 94.0914 304 72C304 49.9086 321.909 32 344 32C366.091 32 384 49.9086 384 72Z" fill="#F48A32"/>
<path d="M113.844 282V138.836H141.969L200.562 234.441V138.836H227.418V282H198.414L140.699 188.641V282H113.844Z" fill="#F48A32"/>
<path d="M196.746 282V138.836H294.891V163.055H225.652V196.941H285.418V221.16H225.652V282H196.746Z" fill="#F48A32"/>
</svg>
